<svg xmlns="http://www.w3.org/2000/svg" width="42" height="42" viewBox="0 0 42 42">
    <g fill="none" fill-rule="evenodd">
        <path fill="#323232" d="M41.95 21.027C41.95 32.609 32.56 42 20.977 42 9.39 42 0 32.609 0 21.027 0 9.442 9.39.053 20.977.053c11.582 0 20.973 9.389 20.973 20.974"/>
        <path fill="#FFF" fill-rule="nonzero" d="M33.837 16.609c-.113-.487-.35-.936-.69-1.303-.275-.32-.613-.582-.993-.768-.62-.264-1.313-.31-1.962-.129-.383.098-.74.273-1.053.514-.435.35-.813.765-1.12 1.23-.472.697-.882 1.434-1.225 2.203-.539 1.13-.97 2.302-1.381 3.479-.078.223-.154.447-.23.673-.075.226-.158.476-.23.719-.038.124-.083.245-.135.363-.144.34-.37.639-.657.87-.14.11-.294.2-.458.269-.765.323-2.32 1.279-3.68 3.373.05-.19.1-.377.145-.554.57-2.208 1.54-6.871 1.858-7.21.237-.25 1.97-.663 3.02-.539.63.07 1.123-1.15.345-1.51-.657-.304-1.836.328-2.453.328-.317 0-.5-.062-.576-.19-.269-.442.975-4.777 1.815-7.03.019-.049.038-.11.062-.184.697-2.021 1.736-1.857 1.911-1.857.889 0 .956.724.867 1.112-.089.387-.334.538-.511.807-.18.251-.302.538-.361.84-.056.308.006.626.175.889.203.268.504.445.837.49.573.103 1.15-.163 1.443-.665.254-.434.332-.948.221-1.438-.111-.487-.349-.937-.69-1.303-.274-.318-.611-.577-.99-.762-1.003-.415-2.152-.268-3.018.388-.433.344-.81.754-1.117 1.214-.474.696-.885 1.433-1.228 2.202-.538 1.134-.97 2.302-1.381 3.479-.078.223-.154.45-.229.673-.075.223-.159.476-.231.719-.038.123-.082.245-.132.363-.146.34-.372.638-.657.873-.141.11-.296.2-.46.269-.763.323-2.31 1.276-3.67 3.357l.142-.538c.571-2.208 1.532-6.871 1.855-7.208.237-.253 1.971-.665 3.024-.538.627.07 1.12-1.15.344-1.508-.66-.307-1.836.326-2.452.326-.318 0-.504-.06-.58-.191-.268-.442.978-4.774 1.816-7.03.018-.048.04-.11.064-.183.695-2.022 1.737-1.858 1.912-1.858.888 0 .955.725.867 1.112-.09.388-.334.539-.515.808-.178.253-.3.541-.358.845-.059.308.004.627.175.889.202.27.504.446.838.49.285.048.58.008.842-.113.246-.12.453-.307.598-.539.254-.433.334-.947.223-1.437-.113-.487-.35-.936-.689-1.303-.276-.318-.614-.577-.993-.76-.621-.266-1.315-.311-1.966-.129-.38.094-.736.264-1.05.498-.432.346-.808.755-1.117 1.214-.472.697-.882 1.434-1.225 2.203-.538 1.133-.97 2.302-1.381 3.48-.078.224-.156.448-.232.671-.075.224-.158.48-.231.72-.033.123-.073.244-.121.363-.145.34-.37.64-.657.872-.141.11-.296.2-.46.27-1.158.486-4.085 2.403-5.46 7.424-.784 2.87-.54 6.255 2.66 6.255.933-.002 1.814-.434 2.387-1.171l-.04.134c-.783 2.87-.538 6.254 2.663 6.254.938-.003 1.822-.439 2.396-1.182 0 .049-.03.097-.043.146-.784 2.867-.539 6.251 2.663 6.251 2.762 0 3.696-3.432 4.267-5.64.57-2.208 1.54-6.873 1.855-7.21.24-.253 1.97-.662 3.023-.538.628.07 1.12-1.153.345-1.51-.657-.305-1.836.328-2.453.328-.317 0-.5-.062-.579-.192-.269-.441.978-4.776 1.815-7.03.019-.05.04-.11.065-.185.697-2.02 1.736-1.855 1.911-1.855.889 0 .956.722.867 1.112-.089.39-.334.538-.511.808-.18.253-.303.543-.361.848-.07.32.002.653.195.916.194.263.492.43.817.46.286.049.58.01.843-.11.249-.128.457-.323.6-.564.252-.431.33-.942.22-1.43zM12.26 25.327c-.288.963-.792 2.11-2.036 2.046-1.992-.103-2.477-3.161-1.109-6.806 1.214-3.231 3.193-5.299 4.669-5.299h.018c.093-.001.181.04.24.11.2.243.094.83.022 1.22l-.02.11c-.425 2.359-1.423 7.402-1.784 8.619zm5.007 5.217c-.285.964-.788 2.108-2.032 2.046-1.993-.105-2.477-3.16-1.11-6.806 1.22-3.241 3.194-5.298 4.666-5.298h.02c.092-.001.181.039.241.11.2.242.092.83.022 1.22l-.022.11c-.425 2.359-1.424 7.401-1.785 8.618zm6.823-3.5l-.022.113c-.425 2.359-1.424 7.399-1.785 8.616-.285.964-.789 2.108-2.032 2.043-1.993-.102-2.477-3.158-1.112-6.806 1.217-3.23 3.195-5.296 4.668-5.296h.019c.093-.002.183.039.242.11.197.232.092.83.022 1.207v.013z"/>
    </g>
</svg>
