<svg xmlns="http://www.w3.org/2000/svg" width="70" height="19" viewBox="0 0 70 19">
    <g fill="none" fill-rule="evenodd">
        <path fill="#113984" d="M9.183 0c2.344 0 4.507 1.263 4.211 4.409-.359 3.74-2.376 5.809-5.56 5.818H5.052c-.4 0-.594.324-.698.988l-.538 3.396c-.08.512-.346.765-.737.765H.491c-.413 0-.556-.261-.465-.847L2.163.919C2.268.249 2.52 0 2.983 0h6.2zM4.968 7.287h2.107c1.319-.05 2.194-.957 2.282-2.591.054-1.01-.633-1.733-1.726-1.728l-1.983.01-.68 4.309zm15.462 7.048c.237-.214.477-.324.443-.06l-.084.63c-.043.329.088.503.396.503h2.3c.387 0 .576-.155.67-.75l1.418-8.828c.071-.443-.038-.66-.377-.66h-2.53c-.227 0-.338.126-.397.471l-.094.543c-.048.283-.179.333-.3.048-.43-1.007-1.524-1.46-3.05-1.424-3.546.073-5.937 2.746-6.193 6.172-.198 2.65 1.714 4.731 4.236 4.731 1.83 0 2.648-.534 3.57-1.371l-.008-.005zm-1.926-1.359c-1.526 0-2.59-1.21-2.37-2.69.221-1.482 1.649-2.691 3.175-2.691 1.527 0 2.59 1.209 2.37 2.69-.221 1.482-1.647 2.691-3.175 2.691zm11.569-7.835H27.74c-.48 0-.676.356-.524.794l2.895 8.416-2.84 4.004c-.238.335-.053.64.282.64h2.62a.804.804 0 0 0 .78-.38l8.903-12.678c.274-.39.145-.8-.305-.8h-2.48c-.426 0-.596.168-.84.518l-3.713 5.343-1.659-5.355c-.097-.324-.339-.502-.786-.502h-.001z"/>
        <path fill="#009EE3" d="M47.926.004c2.279 0 4.382 1.285 4.094 4.489-.348 3.807-2.31 5.914-5.405 5.923h-2.703c-.39 0-.577.33-.679 1.006l-.523 3.458c-.078.522-.336.78-.716.78h-2.517c-.4 0-.54-.267-.451-.864l2.08-13.86c.103-.682.349-.936.797-.936h6.023v.004zm-4.098 7.419h2.049c1.282-.051 2.133-.974 2.218-2.638.052-1.028-.615-1.764-1.677-1.76l-1.929.01-.66 4.388zm15.033 7.176c.23-.218.464-.33.43-.062l-.081.642c-.042.335.085.513.385.513h2.236c.376 0 .56-.158.652-.764L63.86 5.94c.07-.451-.036-.672-.366-.672H61.04c-.221 0-.33.129-.387.48l-.09.553c-.048.289-.175.34-.294.05-.416-1.027-1.48-1.487-2.964-1.451-3.448.074-5.772 2.796-6.021 6.284C51.09 13.88 52.95 16 55.4 16c1.78 0 2.574-.544 3.47-1.396l-.01-.005zm-1.871-1.384c-1.484 0-2.518-1.23-2.303-2.74.214-1.508 1.602-2.739 3.086-2.739 1.484 0 2.518 1.231 2.304 2.74-.215 1.508-1.603 2.74-3.087 2.74zm10.311 2.491h-2.58a.3.3 0 0 1-.24-.104.326.326 0 0 1-.076-.258L66.67.412a.45.45 0 0 1 .43-.363h2.58a.3.3 0 0 1 .24.104c.061.07.089.165.076.259L67.73 15.344a.45.45 0 0 1-.429.366v-.004z"/>
    </g>
</svg>
