<?xml version="1.0" encoding="utf-8"?>
<!-- Generator: Adobe Illustrator 21.1.0, SVG Export Plug-In . SVG Version: 6.00 Build 0)  -->
<svg version="1.1" id="Layer_1" xmlns="http://www.w3.org/2000/svg" xmlns:xlink="http://www.w3.org/1999/xlink" x="0px" y="0px"
	 viewBox="0 0 200 200" style="enable-background:new 0 0 200 200;" xml:space="preserve">
<style type="text/css">
	.st0{fill:#F4ECE7;stroke:#000000;stroke-width:1.25;stroke-miterlimit:10;}
	.st1{fill:none;}
	.st2{fill:#231F20;}
</style>
<path class="st0" d="M172.2,147.2h-141c-2.2,0-4-1.8-4-4v-4c0-2.2,1.8-4,4-4h141c2.2,0,4,1.8,4,4v4
	C176.2,145.4,174.4,147.2,172.2,147.2z"/>
<g>
	<g>
		<polygon class="st1" points="56.7,74.1 67.4,67.6 142.9,67.2 145.8,69.4 145.6,113.5 144.5,116.6 133.6,121 		"/>
	</g>
	<rect x="56.7" y="71.7" class="st1" width="78.5" height="48.2"/>
	<path class="st2" d="M67.3,66.9l-10.7,5.1l-0.5,0.2v49.3l79.5-0.1l0.2-0.1l10.7-5.1V66.9H67.3z M67.5,68.2h75.6l-8.1,3.9H59.5
		L67.5,68.2z M134.6,120.3H57.3v-47h77.2V120.3z M135.8,119.9V73.1l9.4-4.5v46.9L135.8,119.9z"/>
</g>
<g>
	<path class="st2" d="M63.8,94.3H68v1.1h-3v1.2h2.7v1.1H65v2.2h-1.2V94.3z"/>
	<path class="st2" d="M72.7,94.3h1.1l2.4,5.6H75l-0.5-1.3h-2.4l-0.5,1.3h-1.3L72.7,94.3z M74,97.6l-0.7-1.8l-0.7,1.8H74z"/>
	<path class="st2" d="M79.3,94.3h2.6c0.6,0,1.1,0.2,1.5,0.5c0.3,0.3,0.4,0.6,0.4,1v0c0,0.6-0.3,1-0.7,1.2c0.6,0.2,1,0.6,1,1.4v0
		c0,1-0.8,1.5-2.1,1.5h-2.7V94.3z M81.6,96.6c0.5,0,0.9-0.2,0.9-0.6v0c0-0.4-0.3-0.6-0.8-0.6h-1.2v1.2H81.6z M81.9,98.9
		c0.5,0,0.9-0.2,0.9-0.6v0c0-0.4-0.3-0.6-0.9-0.6h-1.4v1.2H81.9z"/>
	<path class="st2" d="M87.3,94.3h4.3v1.1h-3v1.2h2.7v1.1h-2.7v2.2h-1.2V94.3z"/>
	<path class="st2" d="M94.7,94.3H96v5.6h-1.2V94.3z"/>
	<path class="st2" d="M100.7,95.5H99v-1.1h4.6v1.1H102v4.5h-1.2V95.5z"/>
	<path class="st2" d="M106.7,94.3h4.3v1.1h-3v1.2h2.7v1.1h-2.7v2.2h-1.2V94.3z"/>
	<path class="st2" d="M114,97.5v-3.2h1.2v3.2c0,0.9,0.5,1.4,1.2,1.4c0.8,0,1.2-0.5,1.2-1.3v-3.2h1.2v3.2c0,1.7-1,2.5-2.5,2.5
		C115,100,114,99.2,114,97.5z"/>
	<path class="st2" d="M122.4,94.3h1.1l2.6,3.4v-3.4h1.2v5.6h-1l-2.7-3.6v3.6h-1.2V94.3z"/>
</g>
<g>
	<polygon class="st2" points="145,123 139.9,107 156,112.1 152,116 158.1,122 155,125.1 148.9,119.1 	"/>
</g>
<g>
	<path class="st1" d="M172.5,147.5h-141c-2.2,0-4-1.8-4-4v-4c0-2.2,1.8-4,4-4h141c2.2,0,4,1.8,4,4v4
		C176.5,145.7,174.7,147.5,172.5,147.5z"/>
	<path d="M172.5,134.9h-2.9V60.7c0-0.3,0-0.7,0-1c0-3.1,0.1-7-2.3-9.3c-1.3-1.3-3.3-2-5.8-2h-55.4h-7.1H43.8c-2.5,0-4.5,0.7-5.8,2
		c-2.3,2.4-2.3,6.2-2.3,9.3c0,0.4,0,0.7,0,1v74.1h-4.2c-2.6,0-4.6,2.1-4.6,4.6v4c0,2.5,2.1,4.6,4.6,4.6h141c2.5,0,4.6-2.1,4.6-4.6
		v-4C177.1,137,175,134.9,172.5,134.9z M38.9,51.3c1.1-1.1,2.7-1.6,4.9-1.6h55.4h7.1h55.4c2.2,0,3.8,0.5,4.9,1.6
		c2,2,1.9,5.6,1.9,8.4c0,0.4,0,0.7,0,1v74.1H37V60.7c0-0.3,0-0.7,0-1C36.9,56.8,36.9,53.3,38.9,51.3z M37,136.1h131.4h1.2h2.9
		c1.9,0,3.4,1.5,3.4,3.4v4c0,1.9-1.5,3.4-3.4,3.4h-141c-1.9,0-3.4-1.5-3.4-3.4v-4c0-1.9,1.5-3.4,3.4-3.4h4.2H37z"/>
</g>
</svg>
