<?xml version="1.0" encoding="utf-8"?>
<!-- Generator: Adobe Illustrator 21.1.0, SVG Export Plug-In . SVG Version: 6.00 Build 0)  -->
<svg version="1.1" id="Layer_1" xmlns="http://www.w3.org/2000/svg" xmlns:xlink="http://www.w3.org/1999/xlink" x="0px" y="0px"
	 viewBox="0 0 200 200" style="enable-background:new 0 0 200 200;" xml:space="preserve">
<style type="text/css">
	.st0{fill:#F4ECE7;}
	.st1{fill:#231F20;}
	.st2{fill:#221F1F;}
	.st3{fill:#F79E9C;}
	.st4{fill:#FFFFFF;}
</style>
<path class="st0" d="M179.1,82.2v62h-78.2V65.9h63.7c0.1-2.7,1-5.2,2.3-7.4H92.9v94h94v-72c-2.1,1-4.4,1.7-6.9,1.7
	C179.7,82.2,179.4,82.2,179.1,82.2z"/>
<path class="st1" d="M178.4,82.2c-0.2,0-0.4-0.1-0.6-0.1v60.8h-75.8V67.2h62.5c0,0,0-0.1,0-0.1c0-0.1,0-0.2,0-0.3c0-0.1,0-0.1,0-0.2
	c0-0.2,0-0.4,0-0.6h-63.7v78.3h78.2v-62C178.9,82.2,178.6,82.2,178.4,82.2z"/>
<path class="st0" d="M133.1,126.7c1.1,0.7,7.3,4.1,14.6,0.1c0.6-10.8,2.6-30.8,3.8-41.3h-21.9C130.7,95.9,132.6,115.5,133.1,126.7z"
	/>
<path class="st0" d="M152.2,79.4H129c0.1,0.9,0.3,2.6,0.5,5h22.2C151.9,82,152.1,80.3,152.2,79.4z"/>
<path class="st0" d="M133.2,128.2c0.1,1.4,0.1,2.6,0.1,3.6c0,1.3,3.2,2.3,7.2,2.3s7.2-1,7.2-2.3c0-0.9,0-2.1,0.1-3.5
	c-2.5,1.2-4.9,1.6-7,1.6C137.2,130,134.5,128.9,133.2,128.2z"/>
<path class="st2" d="M132,131.8c0,2.6,4.5,3.5,8.4,3.5s8.4-0.9,8.4-3.5c0-10.7,4.6-52.6,4.7-53l0.1-0.7h-26l0.1,0.7
	C127.7,79.2,132,119.6,132,131.8z M152.9,78.8c0,0-0.2,2.1-0.6,5.6h0v1.2h-0.2c-1.1,10.5-3.2,30.4-3.8,41.3l0.5,0.8
	c-0.2,0.1-0.4,0.2-0.5,0.3c-0.1,1.5-0.1,2.8-0.1,3.9c0,3.9-15.6,3.9-15.6,0c0-1.1,0-2.5-0.1-4c-0.2-0.1-0.3-0.2-0.3-0.2l0.3-0.4
	c-0.5-11.2-2.5-31.2-3.5-41.7h-0.1v-1.2h0c-0.4-3.4-0.6-5.6-0.6-5.6H152.9z"/>
<path class="st2" d="M129.5,84.3c-0.2-2.3-0.4-4.1-0.5-5h23.2c-0.1,0.9-0.3,2.6-0.5,5h0.6c0.4-3.4,0.6-5.6,0.6-5.6h-24.6
	c0,0,0.2,2.1,0.6,5.6H129.5z"/>
<path class="st2" d="M147.6,131.8c0,1.3-3.2,2.3-7.2,2.3s-7.2-1-7.2-2.3c0-1,0-2.3-0.1-3.6c-0.3-0.1-0.5-0.3-0.6-0.3
	c0.1,1.5,0.1,2.9,0.1,4c0,3.9,15.6,3.9,15.6,0c0-1,0-2.3,0.1-3.9c-0.2,0.1-0.4,0.2-0.6,0.3C147.6,129.7,147.6,130.9,147.6,131.8z"/>
<path class="st2" d="M147.7,126.9c0.2-0.1,0.3-0.2,0.5-0.3l0.1,0.2c0.6-10.9,2.6-30.8,3.8-41.3h-0.6
	C150.4,96.1,148.4,116,147.7,126.9z"/>
<path class="st2" d="M133.1,126.7c-0.5-11.3-2.5-30.8-3.5-41.1H129c1.1,10.5,3,30.5,3.5,41.7l0.4-0.6
	C133,126.6,133,126.7,133.1,126.7z"/>
<path class="st2" d="M133.1,126.7c0,0.5,0,1,0.1,1.5c1.3,0.7,4,1.8,7.5,1.8c2.1,0,4.5-0.4,7-1.6c0-0.5,0-1,0.1-1.5
	C140.4,130.8,134.2,127.4,133.1,126.7z"/>
<path class="st2" d="M148.9,127.7l-0.5-0.8c0,0.4,0,0.8-0.1,1.1C148.5,127.9,148.7,127.8,148.9,127.7z"/>
<path class="st2" d="M132.2,127.7c0,0,0.1,0.1,0.3,0.2c0-0.2,0-0.4,0-0.6L132.2,127.7z"/>
<path class="st2" d="M133.1,126.7c-0.1-0.1-0.2-0.1-0.2-0.1l-0.4,0.6c0,0.2,0,0.4,0,0.6c0.2,0.1,0.4,0.2,0.6,0.3
	C133.2,127.7,133.1,127.2,133.1,126.7z"/>
<path class="st2" d="M147.7,126.9c0,0.5-0.1,1-0.1,1.5c0.2-0.1,0.4-0.2,0.6-0.3c0-0.4,0-0.7,0.1-1.1l-0.1-0.2
	C148.1,126.7,147.9,126.8,147.7,126.9z"/>
<path class="st2" d="M151.5,85.6c0-0.4,0.1-0.8,0.1-1.2h-22.2c0,0.4,0.1,0.8,0.1,1.2H151.5z"/>
<path class="st2" d="M128.8,84.3v1.2h0.1C128.9,85.2,128.9,84.7,128.8,84.3L128.8,84.3z"/>
<path class="st2" d="M152.3,85.6v-1.2h0c0,0.4-0.1,0.8-0.1,1.2H152.3z"/>
<path class="st2" d="M151.5,85.6h0.6c0-0.4,0.1-0.8,0.1-1.2h-0.6C151.6,84.7,151.5,85.2,151.5,85.6z"/>
<path class="st2" d="M129.5,84.3h-0.6c0,0.4,0.1,0.8,0.1,1.2h0.6C129.6,85.2,129.5,84.7,129.5,84.3z"/>
<path class="st3" d="M180,51.2c-5.5,0-10.4,2.9-13.1,7.3c-1.4,2.2-2.2,4.7-2.3,7.4c0,0.2,0,0.4,0,0.6c0,0.1,0,0.1,0,0.2
	c0,0.1,0,0.2,0,0.3c0,0,0,0.1,0,0.1c0.1,3.1,1.1,6,2.7,8.4c0.8,1.1,1.7,2.1,2.7,3c2.2,1.9,4.9,3.1,7.9,3.6c0.2,0,0.4,0.1,0.6,0.1
	c0.2,0,0.4,0,0.6,0c0.3,0,0.6,0,0.9,0c2.5,0,4.8-0.6,6.9-1.7c5.1-2.5,8.6-7.8,8.6-13.8C195.5,58.2,188.6,51.2,180,51.2z M186.9,64.2
	l-7.9,7.9l-0.6,0.6l-0.6,0.6l-0.9,0.9l-6.4-6.4l0.6-0.6l0.1-0.1l0.5-0.5l0.6-0.6l0.6,0.6l0.5,0.5l0.1,0.1l3.4,3.4l0.9-0.9l0.6-0.6
	l0.6-0.6l7.6-7.6l0.2,0.2l1.6,1.6L186.9,64.2z"/>
<g>
	<g>
		<path class="st1" d="M46.9,134.1c-2.5,0-4.8-0.3-6.5-0.8c-2.2-0.6-3.3-1.6-3.3-2.8v-30c0-2.6,5.3-3.5,9.8-3.5
			c4.5,0,9.8,0.9,9.8,3.5v30C56.8,133.1,51.5,134.1,46.9,134.1z M46.9,98.3c-5.1,0-8.6,1.1-8.6,2.2v30c0,1.1,3.3,2.3,8.6,2.3
			c5.3,0,8.6-1.2,8.6-2.3v-30c0-0.5-0.9-1.1-2.4-1.5C51.5,98.5,49.3,98.3,46.9,98.3z"/>
	</g>
	<g>
		<path class="st4" d="M52.2,97.4c0,2.5-10.6,2.5-10.6,0c0-4.1,0-13.8,0-19c0-2.4,10.6-2.4,10.6,0C52.2,83.3,52.2,93.3,52.2,97.4z"
			/>
		<path class="st1" d="M46.9,99.9c-2.9,0-5.9-0.7-5.9-2.5v-19c0-1.8,3.1-2.4,5.9-2.4s5.9,0.6,5.9,2.4v19
			C52.9,99.2,49.8,99.9,46.9,99.9z M46.9,77.3c-3.1,0-4.7,0.8-4.7,1.2v19c0,0.5,1.8,1.2,4.7,1.2s4.7-0.7,4.7-1.2v-19
			C51.6,78,50,77.3,46.9,77.3z"/>
	</g>
	<g>
		<path class="st1" d="M46.4,80.1c-3.2,0-5-1-5.1-1L42,78c0,0,3.6,2,10.1-0.1l0.4,1.2C50.1,79.9,48.1,80.1,46.4,80.1z"/>
	</g>
	<g>
		<path class="st1" d="M46.5,103.2c-5.5,0-8.9-2.1-9.1-2.2l0.7-1.1c0.1,0,7.3,4.5,17.8,0l0.5,1.1C52.6,102.7,49.3,103.2,46.5,103.2z
			"/>
	</g>
</g>
<g>
	<path class="st1" d="M86.1,144.2H7.8V65.9h78.2V144.2z M9.1,142.9h75.8V67.2H9.1V142.9z"/>
</g>
</svg>
