<?xml version="1.0" encoding="utf-8"?>
<!-- Generator: Adobe Illustrator 21.1.0, SVG Export Plug-In . SVG Version: 6.00 Build 0)  -->
<svg version="1.1" id="Layer_1" xmlns="http://www.w3.org/2000/svg" xmlns:xlink="http://www.w3.org/1999/xlink" x="0px" y="0px"
	 viewBox="0 0 200 200" style="enable-background:new 0 0 200 200;" xml:space="preserve">
<style type="text/css">
	.st0{fill:#F4ECE7;}
	.st1{fill:#FFFFFF;}
	.st2{fill:#231F20;}
	.st3{fill:#F4ECE7;stroke:#000000;stroke-width:1.25;stroke-miterlimit:10;}
</style>
<g>
	<g>
		<polyline class="st0" points="103.2,46.6 103.2,39.8 97.3,42.6 97.3,46.6 		"/>
		<polygon points="103.8,46.6 102.6,46.6 102.6,40.8 97.9,43 97.9,46.6 96.7,46.6 96.7,42.2 103.8,38.8 		"/>
	</g>
	<g>
		<polyline class="st1" points="96.4,54.3 96.4,46.7 104.1,46.7 104.1,54.3 		"/>
		<polygon points="104.8,54.2 103.5,54.2 103.5,47.3 97,47.3 97,54.2 95.7,54.2 95.7,46.1 104.8,46.1 		"/>
	</g>
	<g>
		<rect x="95.3" y="54.1" class="st1" width="9.9" height="17.9"/>
		<path d="M105.8,72.6H94.7V53.5h11.1V72.6z M95.9,71.4h8.6V54.7h-8.6V71.4z"/>
	</g>
</g>
<g id="Nm38FZ.tif_5_">
	<g>
		<g>
			<g>
				<path d="M30.1,80.7c1.4,1.8,2.7,3.6,4,5.5c4.5,6.3,8.4,12.9,9.9,20.7c0.1,0.6,0.6,1.3,1.1,1.6c1.4,0.8,2.8,1.5,4.3,2.1
					c0.4,0.2,1.1-0.1,1.6-0.4c1-0.6,2-1.4,3-2.2c1-0.7,2-0.7,3.1-0.3c2.1,0.9,4.3,1.6,6.4,2.5c0.9,0.4,1.7,0.9,2.4,1.5
					c1.1,1,0.9,1.9-0.6,2.2c-1.9,0.4-3.9,0.9-5.8,1c-3.5,0.3-7,0.5-10.5,0.6c-4,0.1-6.9-1.8-8.3-5.7c-1.2-3.3-3.1-6.3-5.4-8.9
					c-0.4-0.4-0.8-0.9-1.2-1.2c-0.6-0.4-1.6-1-1.7-0.9c-0.6,0.5-1.1,1.3-1.1,2.1c-0.3,4.2-0.4,8.4-0.6,12.6c0,0.6,0,1.2,0,1.9
					c-0.7,0-1.4,0-2.2,0c0-0.4,0-0.7,0-1.1c0-4.5,0-9,0-13.6c0-2.1-0.5-4.1-2-5.8c-0.9-1-1.6-2.3-1.9-3.6c-0.2-0.9-0.1-1.7,0-2.6
					c0.3-1.3,1-2.5,1.8-3.6c1.1-1.5,2.4-2.9,3.6-4.3C29.9,80.7,30,80.7,30.1,80.7z"/>
			</g>
		</g>
	</g>
</g>
<g>
	<path class="st0" d="M118.4,129.4h47l-4.5-39.2h-38.1L118.4,129.4z"/>
	<path class="st2" d="M161.5,89.6h-8.9v-2.7c0-5.9-4.8-10.7-10.7-10.7s-10.7,4.8-10.7,10.7v2.7h-8.9l-4.6,40.4h48.4L161.5,89.6z
		 M132.4,86.9c0-5.2,4.2-9.4,9.4-9.4s9.4,4.2,9.4,9.4v2.7h-18.9V86.9z M123.4,90.9h7.8v2.8c-0.9,0.3-1.6,1.1-1.6,2.1
		c0,1.2,1,2.2,2.2,2.2c1.2,0,2.2-1,2.2-2.2c0-1-0.7-1.9-1.6-2.1v-2.8h18.9v2.8c-0.9,0.3-1.6,1.1-1.6,2.1c0,1.2,1,2.2,2.2,2.2
		s2.2-1,2.2-2.2c0-1-0.7-1.9-1.6-2.1v-2.8h7.8l4.3,37.9h-45.6L123.4,90.9z"/>
</g>
<g>
	<path class="st0" d="M168,138h-41.2h-2.7H67.4c0,0.1,0,0.2,0,0.3v15.6c0,7.8,6.4,14.1,14.1,14.1h31.2c7.8,0,14.1-6.4,14.1-14.1
		v-12.5H168V138z"/>
	<path d="M112.7,168.7H81.5c-8.1,0-14.8-6.6-14.8-14.8v-15.6c0-0.1,0-0.1,0-0.2l0-0.7h101.9v4.7h-41.2v11.9
		C127.4,162,120.8,168.7,112.7,168.7z M68,138.6v15.3c0,7.4,6.1,13.5,13.5,13.5h31.2c7.4,0,13.5-6.1,13.5-13.5v-13.1h41.2v-2.2H68z"
		/>
</g>
<g>
	<path class="st0" d="M36.1,134.2c0-4.4-2.5-7.9-5.6-7.9c-3.1,0-5.6,3.5-5.6,7.9c0,3.6,1.7,6.7,4.1,7.6c0,3.7,0,19.8,0,25.4
		c0,0.7,3,0.7,3,0c0-6.2,0-21.8,0-25.4C34.4,140.9,36.1,137.9,36.1,134.2z"/>
	<path d="M30.5,168.4c-1.3,0-2.1-0.4-2.1-1.2v-25c-2.4-1.2-4.1-4.4-4.1-8c0-4.7,2.8-8.5,6.2-8.5s6.2,3.8,6.2,8.5
		c0,3.6-1.7,6.8-4.1,8v25C32.7,168,31.9,168.4,30.5,168.4z M29.7,167.1c0.4,0.2,1.4,0.2,1.7,0v-25.6l0.4-0.2c2.2-0.9,3.7-3.7,3.7-7
		c0-4-2.2-7.3-5-7.3s-5,3.3-5,7.3c0,3.3,1.5,6.2,3.7,7l0.4,0.2V167.1z"/>
</g>
<g>
	<g>
		<path class="st1" d="M75.9,120.4c-0.1,1.5,0,3.1,0.5,4.5c0.6,1.4,1.7,2.7,3.1,3.1c2.2,0.7,4.5-0.6,6.8-0.5
			c1.1,0.1,2.1,0.4,3.1,0.7c2.6,0.6,5.4,0.6,8-0.2c0.6-0.2,1.2-0.4,1.8-0.7c0.6-0.4,1.1-0.9,1.4-1.5c0.8-1.3,1.2-2.9,1.4-4.4
			c0.3-1.6,0.5-3.2,0.3-4.8c-0.3-2.3-1.7-4.3-3.5-5.8c-1.8-1.5-3.9-2.5-6.1-3.3c-2.4-0.9-5.1-1.5-7.6-1.2
			C78.7,107.3,76.2,114.9,75.9,120.4z"/>
		<path d="M93.1,129.4c-1.3,0-2.6-0.2-3.9-0.5c-0.3-0.1-0.6-0.1-0.8-0.2c-0.7-0.2-1.5-0.4-2.2-0.4c-0.9-0.1-1.8,0.1-2.7,0.3
			c-1.4,0.3-2.8,0.5-4.2,0.1c-1.5-0.5-2.9-1.8-3.5-3.5c-0.5-1.3-0.7-2.8-0.6-4.8c0.4-6.2,3.2-13.7,9.8-14.6c3-0.4,6,0.5,7.9,1.2
			c2.7,1,4.7,2.1,6.3,3.4c2,1.7,3.4,3.9,3.7,6.2c0.2,1.6,0,3.2-0.3,5c-0.3,1.7-0.6,3.3-1.5,4.6c-0.5,0.7-1,1.2-1.6,1.6
			c-0.6,0.4-1.4,0.7-1.9,0.8C96.2,129.2,94.7,129.4,93.1,129.4z M86,127c0.1,0,0.3,0,0.4,0c0.9,0,1.7,0.3,2.4,0.5
			c0.3,0.1,0.5,0.1,0.8,0.2c2.5,0.6,5.2,0.6,7.7-0.1c0.5-0.1,1.1-0.3,1.6-0.7c0.5-0.3,0.9-0.7,1.3-1.3c0.8-1.2,1-2.6,1.3-4.2
			c0.3-1.7,0.5-3.2,0.3-4.6c-0.3-2-1.5-3.9-3.3-5.4c-1.5-1.2-3.3-2.2-5.9-3.2c-1.9-0.7-4.6-1.5-7.3-1.2c-5.9,0.8-8.4,7.7-8.8,13.4v0
			c-0.1,1.8,0,3.1,0.5,4.2c0.5,1.4,1.6,2.4,2.7,2.8c1.1,0.3,2.3,0.1,3.6-0.1C84.2,127.2,85,127,86,127z"/>
	</g>
	<g>
		
			<ellipse transform="matrix(1.819967e-02 -0.9998 0.9998 1.819967e-02 -30.1269 204.4406)" class="st0" cx="89" cy="117.6" rx="5.6" ry="5.6"/>
		<path d="M89,123.8c0,0-0.1,0-0.1,0c-1.7,0-3.2-0.7-4.4-1.9c-1.2-1.2-1.8-2.8-1.8-4.4c0-1.7,0.7-3.2,1.9-4.4
			c1.2-1.2,2.8-1.8,4.5-1.7c3.5,0.1,6.2,2.9,6.1,6.3C95.2,121.1,92.4,123.8,89,123.8z M89,112.6c-1.3,0-2.5,0.5-3.5,1.4
			c-1,0.9-1.5,2.2-1.5,3.5c0,1.3,0.5,2.6,1.4,3.5c0.9,1,2.2,1.5,3.5,1.5c2.8,0.1,5.1-2.1,5.1-4.9C94.1,114.9,91.9,112.6,89,112.6
			C89.1,112.6,89.1,112.6,89,112.6z"/>
	</g>
</g>
<g>
	<path class="st3" d="M130.3-4.4"/>
</g>
<g>
	<g>
		<path class="st0" d="M46.1,141.2c-0.2-0.2-0.5-0.3-0.8-0.5c-0.4-0.2-0.8-0.5-1.1-0.8c-0.3-0.4-0.4-0.8-0.4-1.2
			c0-0.8,0-1.6,0.1-2.4c0.2-1.7,0.4-3.4,0.6-5.1c0-0.1,0.6-3.9,0.6-3.9h5.1c0,0,0.5,5.3,0.6,5.4c0.1,1.4,0.2,2.8,0.3,4.2
			c0,0.6,0,1.2,0,1.8c0,0.6,0.1,1.5-0.4,1.8c-0.3,0.2-0.7,0.4-1,0.6c-0.2,0.1-0.5,0.3-0.7,0.5"/>
		<path d="M49.4,142.1l-0.8-1c0.2-0.2,0.5-0.3,0.7-0.5c0.1-0.1,0.3-0.2,0.4-0.2c0.2-0.1,0.4-0.2,0.6-0.4c0.2-0.1,0.2-0.6,0.2-1.1
			l0-0.3c0-0.6,0-1.2,0-1.7c-0.1-1.4-0.2-2.8-0.3-4.2l0,0c-0.1-0.5-0.2-1.6-0.5-4.8h-4c-0.2,1.3-0.4,2.9-0.5,3.2l0,0l0,0.1
			c-0.2,1.7-0.4,3.4-0.6,5.1c-0.1,0.7-0.1,1.4-0.1,2.1l0,0.2c0,0.3,0.1,0.6,0.3,0.8c0.2,0.3,0.5,0.5,0.9,0.7l0.2,0.1
			c0.2,0.1,0.4,0.2,0.6,0.4l-0.7,1c-0.2-0.1-0.4-0.2-0.5-0.3l-0.2-0.1c-0.4-0.2-0.9-0.5-1.2-1c-0.4-0.5-0.6-1-0.5-1.6l0-0.2
			c0-0.7,0-1.5,0.1-2.2c0.2-1.7,0.4-3.4,0.6-5.1l0,0c0-0.2,0.1-1,0.6-3.9l0.1-0.5h6.2l0.1,0.6c0.2,1.7,0.5,4.4,0.6,5.2l0,0l0,0.2
			c0.1,1.4,0.2,2.8,0.3,4.2c0,0.6,0,1.2,0,1.8l0,0.2c0,0.7,0,1.6-0.7,2.1c-0.2,0.1-0.4,0.3-0.7,0.4c-0.1,0.1-0.3,0.1-0.4,0.2
			C49.8,141.8,49.6,141.9,49.4,142.1z"/>
	</g>
	<g>
		<path class="st3" d="M47.5,138.6"/>
	</g>
	<g>
		<path class="st0" d="M46,139.9c0,4,0,21.6,0,27.6c0,0.8,3,0.8,3,0c0-6.8,0-23.7,0-27.6"/>
		<path d="M47.5,168.7c-1.3,0-2.1-0.5-2.1-1.2l0-27.4l1.3,0.4l0,26.9c0.4,0.2,1.4,0.2,1.7,0l0-26.5l1.4-0.5l-0.2,27.1
			C49.6,168.2,48.8,168.7,47.5,168.7z"/>
	</g>
</g>
<g>
	<g>
		<rect x="54.5" y="88.4" class="st1" width="55.9" height="4.1"/>
		<path d="M111,93.2H53.9v-5.4H111V93.2z M55.1,91.9h54.7V89H55.1V91.9z"/>
	</g>
	<g>
		<rect x="60.3" y="79.1" class="st0" width="9.1" height="22.8"/>
		<path d="M70,102.5H59.6v-24H70V102.5z M60.9,101.2h7.9V79.7h-7.9V101.2z"/>
	</g>
	<g>
		
			<rect x="95.7" y="79.1" transform="matrix(-1 -4.502499e-11 4.502499e-11 -1 200.4561 180.9491)" class="st0" width="9.1" height="22.8"/>
		<path d="M105.4,102.5H95v-24h10.4V102.5z M96.3,101.2h7.9V79.7h-7.9V101.2z"/>
	</g>
</g>
<g>
	<polygon class="st1" points="141.6,72.4 114.9,72 141.6,46.8 165.3,47.4 	"/>
	<g>
		<path class="st1" d="M119.2,70.4l-7.4-7.1c0,0,16.5-17.3,22-23c0.9-1,4.5-1.2,6.4,0.5c1.9,1.8,2,5.6,1,6.6
			C135.7,53,119.2,70.4,119.2,70.4z"/>
		<path d="M142.2,46.2c0.1-0.4,0.1-0.8,0.1-1.3c0-1.9-0.7-3.6-1.8-4.7c-2.1-1.9-6.1-1.7-7.3-0.5l-22.4,23.5l6.8,6.5l-2.9,2.9
			l27.1,0.4l24.8-26.3L142.2,46.2z M111.7,63.9l22.4-23.2c0.6-0.7,3.9-1,5.5,0.5c1,0.9,1.4,2.6,1.4,3.8c0,0.8-0.1,1.4-0.3,1.7
			l-23,24.4L111.7,63.9z M141.4,71.8l-24.9-0.4l1.5-1.4l1.3,1.2l22.4-23.5c0.1-0.1,0.1-0.2,0.2-0.3l22.1,0.5L141.4,71.8z"/>
	</g>
	<g>
		
			<ellipse transform="matrix(6.654466e-02 -0.9978 0.9978 6.654466e-02 40.9721 177.6368)" class="st1" cx="115.4" cy="66.9" rx="5.1" ry="5.1"/>
		<path d="M115.4,72.7c-0.1,0-0.3,0-0.4,0c-1.5-0.1-3-0.8-4-2c-1-1.2-1.5-2.7-1.4-4.2c0.1-1.5,0.8-3,2-4c1.2-1,2.7-1.5,4.2-1.4
			c3.2,0.2,5.6,3,5.4,6.2l0,0C121,70.3,118.4,72.7,115.4,72.7z M115.4,62.3c-1.1,0-2.2,0.4-3,1.1c-0.9,0.8-1.5,1.9-1.5,3.1
			c-0.1,1.2,0.3,2.4,1.1,3.3c0.8,0.9,1.9,1.5,3.1,1.5c2.5,0.2,4.7-1.7,4.8-4.2c0.2-2.5-1.7-4.7-4.2-4.8
			C115.6,62.3,115.5,62.3,115.4,62.3z"/>
	</g>
	<g>
		
			<ellipse transform="matrix(6.654466e-02 -0.9978 0.9978 6.654466e-02 40.9261 177.7963)" class="st1" cx="115.5" cy="67" rx="2.8" ry="2.8"/>
		<path d="M115.5,70.5c-0.1,0-0.2,0-0.2,0c-0.9-0.1-1.8-0.5-2.4-1.2c-0.6-0.7-0.9-1.6-0.8-2.5c0.1-0.9,0.5-1.8,1.2-2.4
			c0.7-0.6,1.6-0.9,2.5-0.8c1.9,0.1,3.3,1.8,3.2,3.7v0C118.8,69.1,117.3,70.5,115.5,70.5z M115.5,64.8c-0.5,0-1,0.2-1.4,0.5
			c-0.4,0.4-0.7,0.9-0.7,1.5c0,0.6,0.2,1.2,0.5,1.6c0.4,0.4,0.9,0.7,1.5,0.7c1.2,0.1,2.3-0.8,2.3-2.1s-0.8-2.3-2.1-2.3
			C115.6,64.8,115.5,64.8,115.5,64.8z"/>
	</g>
</g>
<g>
	<path class="st1" d="M42.7,50.2c-3.4-2-4.4-5.2-4.4-5.2s-1,3.2-4.4,5.2c3.4,2,4.4,5.2,4.4,5.2S39.3,52.1,42.7,50.2z"/>
	<path d="M38.3,57.4l-0.6-1.9c0,0-1-3-4.1-4.8l-0.9-0.5l0.9-0.5c3.2-1.8,4.1-4.8,4.1-4.8l0.6-1.9l0.6,1.9c0,0,1,3,4.1,4.8l0.9,0.5
		L43,50.7c-3.2,1.8-4.1,4.8-4.1,4.8L38.3,57.4z M35.1,50.2c1.7,1.2,2.7,2.6,3.2,3.6c0.6-1,1.6-2.4,3.2-3.6c-1.7-1.2-2.7-2.6-3.2-3.6
		C37.8,47.6,36.8,49,35.1,50.2z"/>
</g>
<g>
	<path class="st1" d="M148.6,152.5c-3-1.8-3.9-4.6-3.9-4.6s-0.9,2.8-3.9,4.6c3,1.8,3.9,4.6,3.9,4.6S145.6,154.3,148.6,152.5z"/>
	<path d="M144.7,159.2l-0.6-1.9c0,0-0.9-2.6-3.6-4.2l-0.9-0.5l0.9-0.5c2.8-1.6,3.6-4.2,3.6-4.2l0.6-1.9l0.6,1.9c0,0,0.9,2.6,3.6,4.2
		l0.9,0.5l-0.9,0.5c-2.8,1.6-3.6,4.2-3.6,4.2L144.7,159.2z M141.9,152.5c1.4,1,2.3,2.2,2.8,3.1c0.5-0.9,1.4-2.1,2.8-3.1
		c-1.4-1-2.3-2.2-2.8-3.1C144.2,150.3,143.3,151.5,141.9,152.5z"/>
</g>
<g>
	<path class="st1" d="M162.8,74.3c-3.3-1.9-4.2-5-4.2-5s-0.9,3.1-4.2,5c3.3,1.9,4.2,5,4.2,5S159.6,76.2,162.8,74.3z"/>
	<path d="M158.6,81.4l-0.6-1.9c0,0-0.9-2.9-3.9-4.6l-0.9-0.5l0.9-0.5c3-1.7,3.9-4.6,3.9-4.6l0.6-1.9l0.6,1.9c0,0,0.9,2.9,3.9,4.6
		l0.9,0.5l-0.9,0.5c-3,1.7-3.9,4.6-3.9,4.6L158.6,81.4z M155.5,74.3c1.6,1.1,2.5,2.5,3.1,3.4c0.5-1,1.5-2.3,3.1-3.4
		c-1.6-1.1-2.5-2.5-3.1-3.4C158.1,71.9,157.1,73.2,155.5,74.3z"/>
</g>
<g>
	
		<rect x="164.2" y="60.8" transform="matrix(-0.7071 -0.7071 0.7071 -0.7071 239.8347 225.9344)" class="st1" width="5" height="5"/>
	<path d="M166.7,67.7l-4.4-4.4l4.4-4.4l4.4,4.4L166.7,67.7z M164.1,63.3l2.7,2.7l2.7-2.7l-2.7-2.7L164.1,63.3z"/>
</g>
<g>
	<rect x="27.9" y="64.2" transform="matrix(-0.7071 -0.7071 0.7071 -0.7071 4.2698 134.1251)" class="st1" width="4" height="4"/>
	<path d="M29.9,69.9l-3.7-3.7l3.7-3.7l3.7,3.7L29.9,69.9z M28,66.2l1.9,1.9l1.9-1.9l-1.9-1.9L28,66.2z"/>
</g>
<g>
	
		<rect x="134.5" y="160.5" transform="matrix(-0.7071 -0.7071 0.7071 -0.7071 118.4773 374.7917)" class="st1" width="4.7" height="4.7"/>
	<path d="M136.9,167.1l-4.2-4.2l4.2-4.2l4.2,4.2L136.9,167.1z M134.4,162.9l2.5,2.5l2.5-2.5l-2.5-2.5L134.4,162.9z"/>
</g>
<g>
	
		<rect x="151.6" y="159.9" transform="matrix(-0.7071 -0.7071 0.7071 -0.7071 148.0828 385.9405)" class="st1" width="4.7" height="4.7"/>
	<path d="M154,166.5l-4.2-4.2l4.2-4.2l4.2,4.2L154,166.5z M151.5,162.3l2.5,2.5l2.5-2.5l-2.5-2.5L151.5,162.3z"/>
</g>
<g>
	<g>
		<g>
			<g>
				<path class="st0" d="M49.3,64.3l-2.5,4.1c-0.6,1-0.6,2-0.1,2.3h0c0.5,0.3,1.4-0.2,2-1.2l2.5-4.1l-2-1.3"/>
				<path d="M47,71.5c-0.2,0-0.5-0.1-0.7-0.2c-0.8-0.5-0.9-1.9-0.1-3.2l2.5-4.1l0.4,0.2l0.3-0.5l2.6,1.6l-2.9,4.7
					C48.6,70.9,47.7,71.5,47,71.5z M49.5,65.1l-2.2,3.6c-0.5,0.8-0.4,1.4-0.3,1.5c0.1,0,0.7-0.2,1.2-1l2.2-3.6L49.5,65.1z"/>
			</g>
			<g>
				<line class="st0" x1="48.4" y1="63.7" x2="52" y2="65.9"/>
				<rect x="49.6" y="62.7" transform="matrix(0.5222 -0.8529 0.8529 0.5222 -31.2845 73.7542)" width="1.3" height="4.2"/>
			</g>
		</g>
		<path d="M72.9,59.4c4.5-1.2,7.9-5.1,8.3-10c0.2-3-0.7-5.8-2.7-8.1c-1.8-2.1-4.3-3.4-7.1-3.7c-0.7-0.4-1.4-0.7-2.1-0.9
			c-2.8-0.9-5.8-0.7-8.5,0.6c-2.7,1.3-4.6,3.6-5.6,6.5c-0.9,2.8-0.7,5.8,0.6,8.5c1.2,2.3,3.1,4.1,5.4,5.2c-4,0.4-8.4,2.2-11.2,7
			l1.1,0.6c2.5-4.2,6.5-6.4,12.1-6.5c0.6,0,1.2,0,1.8,0.1c1.3,0.6,2.7,1.1,4.2,1.2c0.3,0,0.5,0,0.8,0c0.2,0,0.4,0,0.7,0
			c5.1,2.1,8.5,6,10.2,11.8l1.2-0.3C80.9,67.1,78.4,62.3,72.9,59.4z M70.1,38.7c0.2,0,0.5,0,0.7,0c0.1,0,0.1,0,0.2,0
			c1.6,0.9,2.8,2.3,3.7,4c1.2,2.4,1.4,5,0.6,7.5v0c-0.8,2.5-2.6,4.5-4.9,5.7c-1.4,0.7-2.9,1.1-4.5,1.1c-0.4-0.1-0.7-0.1-1.1-0.2
			c-2.9-1.9-4.8-5.3-4.5-9C60.6,42.7,64.9,38.7,70.1,38.7z M79.9,49.3c-0.3,4.9-4.2,8.6-8.8,9.1c-0.2-0.1-0.5-0.2-0.9-0.3
			c-0.4-0.1-0.7-0.2-1.1-0.4c0.6-0.2,1.2-0.4,1.7-0.7c2.7-1.3,4.6-3.6,5.6-6.5v0c0.9-2.8,0.7-5.8-0.6-8.5c-0.5-1-1.2-1.9-1.9-2.7
			C77.7,41,80.2,44.9,79.9,49.3z M57,51.6c-1.2-2.4-1.4-5-0.6-7.5c0.8-2.5,2.6-4.5,4.9-5.7c1.4-0.7,2.9-1.1,4.5-1.1
			c0.8,0,1.6,0.1,2.5,0.3c-2,0.3-3.9,1.2-5.5,2.6c-2.2,2-3.6,4.7-3.8,7.6c-0.2,3.3,1,6.3,3.1,8.5C59.9,55.4,58.1,53.8,57,51.6z"/>
		<g>
			<g>
				<path class="st0" d="M80.6,71.7l1.5,4.6c0.4,1.1,1.1,1.8,1.7,1.6l0,0c0.6-0.2,0.8-1.2,0.4-2.3L82.7,71l-2.3,0.8"/>
				<path d="M83.6,78.5c-0.8,0-1.7-0.8-2.1-2.1L80,71.9l0.4-0.1l-0.2-0.6l2.9-0.9l1.7,5.2c0.5,1.5,0.1,2.8-0.8,3.1
					C83.8,78.5,83.7,78.5,83.6,78.5z M81.3,72.1l1.3,4c0.3,0.9,0.8,1.2,0.9,1.2c0.1-0.1,0.3-0.6,0-1.5l-1.3-4L81.3,72.1z"/>
			</g>
			<g>
				<line class="st0" x1="79.5" y1="72" x2="83.5" y2="70.7"/>
				<rect x="79.4" y="70.7" transform="matrix(0.9499 -0.3125 0.3125 0.9499 -18.2023 29.0422)" width="4.2" height="1.3"/>
			</g>
		</g>
	</g>
</g>
</svg>
