<?xml version="1.0" encoding="utf-8"?>
<!-- Generator: Adobe Illustrator 21.1.0, SVG Export Plug-In . SVG Version: 6.00 Build 0)  -->
<svg version="1.1" id="Layer_1" xmlns="http://www.w3.org/2000/svg" xmlns:xlink="http://www.w3.org/1999/xlink" x="0px" y="0px"
	 viewBox="0 0 200 200" style="enable-background:new 0 0 200 200;" xml:space="preserve">
<style type="text/css">
	.st0{fill:#FFFFFF;}
	.st1{fill:#231F20;}
	.st2{fill:#FFFFFF;stroke:#231F20;stroke-width:1.25;stroke-miterlimit:10;}
	.st3{fill:#F4ECE7;}
</style>
<g>
	<g>
		<polygon class="st0" points="156,123.5 156.7,157.6 140.3,141 140.5,108.2 		"/>
		<path class="st1" d="M139.7,141.2l0.2-34.6l17.1,16.7 M140.9,140.7l15.1,15.3l-0.7-32.3l-14.3-14.1L140.9,140.7z"/>
	</g>
	<g>
		<polygon class="st0" points="43.6,124.2 43.3,156.9 59.2,141.4 59.1,108.2 		"/>
		<path class="st1" d="M43,123.3l16.7-16.7l0.2,35 M44.2,124.4l-0.3,31l14.7-14.3l-0.1-31.5L44.2,124.4z"/>
	</g>
	<g>
		<rect x="59.2" y="108.6" class="st0" width="81.7" height="48.5"/>
		<path class="st1" d="M141.5,157.7h-83V108h83V157.7z M59.8,156.4h80.5v-47.2H59.8V156.4z"/>
	</g>
	<g>
		<g>
			<rect x="43.6" y="123.9" class="st0" width="112.8" height="33.3"/>
			<path class="st1" d="M157.1,157.9H43v-34.5l114,0L157.1,157.9z M44.2,156.6h111.6v-32H44.2V156.6z"/>
		</g>
		<g>
			<line class="st0" x1="46.8" y1="124.3" x2="46.8" y2="156.9"/>
			<rect x="46.1" y="124.3" class="st1" width="1.2" height="32.6"/>
		</g>
		<g>
			<line class="st0" x1="153" y1="124.3" x2="153" y2="156.9"/>
			<rect x="152.4" y="124.3" class="st1" width="1.2" height="32.6"/>
		</g>
	</g>
	<g>
		<path class="st2" d="M58.3,108.6"/>
	</g>
	<g>
		<path class="st2" d="M42.9,123.9"/>
	</g>
	<g>
		<path class="st2" d="M156.7,123.9"/>
	</g>
	<g>
		<path class="st2" d="M141.1,108.6"/>
	</g>
	<g>
		<rect x="59.2" y="60.2" class="st0" width="81.7" height="48.5"/>
		<path class="st1" d="M141.5,109.2h-83V59.5h83V109.2z M59.8,108h80.5V60.8H59.8V108z"/>
	</g>
	<rect x="59.2" y="42.8" class="st0" width="81.7" height="17.7"/>
	<path class="st0" d="M59.2,42.8c-1,0-12.1,10.5-8.2,16.5s8.2,1.2,8.2,1.2V42.8z"/>
	<g>
		<path class="st0" d="M140.8,42.8c1,0,13.3,10.5,9.4,16.5s-9.4,1.2-9.4,1.2V42.8z"/>
		<path class="st1" d="M150,51.6c-2.5-4.6-8-9.5-9.2-9.5c0,0,0,0,0,0l-0.6,0l0,0l-81.1,0l0,0c-1.2,0.1-5.6,4.4-7.9,8.6
			c-2,3.6-2.3,6.7-0.8,8.9c1.3,2,2.9,3.2,4.6,3.3c0.1,0,0.2,0,0.4,0c2,0,3.5-1.3,4.1-1.8h81.1c0.6,0.5,2.5,1.8,4.8,1.8
			c0.3,0,0.5,0,0.8-0.1c1.8-0.2,3.3-1.3,4.5-3.3C152,57.5,151.8,54.9,150,51.6z M58.5,60.2c-0.5,0.4-1.8,1.6-3.4,1.4
			c-1.3-0.1-2.5-1-3.6-2.7c-0.9-1.4-1-3.1-0.2-5.3c1.5-4.2,5.5-8.4,7.3-9.8V60.2z M59.8,43.4h80.4v16.5H59.8V43.4z M149.6,58.9
			c-1,1.6-2.3,2.5-3.7,2.7c-2,0.3-3.8-0.9-4.5-1.4l-0.1-1V43.8c2,1.4,6.8,6,8.4,10.4C150.5,56.1,150.4,57.7,149.6,58.9z"/>
	</g>
	<g>
		<path class="st0" d="M59.2,61.2c-0.2-0.1-7.1,3.8-8.3,8c-1.2,4.2-1.9,40.3,0,40.4c1.9,0.1,8.2-1.3,8.2-1.3L59.2,61.2z"/>
		<path class="st1" d="M51.1,110.2c-0.1,0-0.1,0-0.2,0c-0.1,0-0.4-0.1-0.7-0.4c-1.9-2.6-1-36.9,0.1-40.8c1-3.7,6.2-7.1,8-8.1
			c0.5-0.3,0.8-0.4,1-0.3l0.4,0.1l-0.1,48l-0.5,0.1C59.1,108.9,53.3,110.2,51.1,110.2z M58.6,62.2c-1.8,1.1-6.2,4.1-7.1,7.2
			c-1.5,5.5-1.4,36.9-0.3,39.6c1.6,0,5.4-0.8,7.3-1.2L58.6,62.2z"/>
	</g>
	<g>
		<path class="st0" d="M140.8,61.2c0.2-0.1,7.1,3.8,8.2,8c1.2,4.2,1.9,40.3,0,40.4c-1.9,0.1-8.2-1.3-8.2-1.3V61.2z"/>
		<path class="st1" d="M148.8,110.2c-2.1,0-7.9-1.3-8.2-1.4l-0.5-0.1v-48l0.4-0.1c0.3-0.1,0.5,0,1,0.3c0.1,0,6.8,3.7,8,8.2
			c1.1,3.9,2,38.1,0.1,40.8c-0.2,0.3-0.5,0.4-0.7,0.4C149,110.2,148.9,110.2,148.8,110.2z M141.4,107.7c1.9,0.4,5.8,1.2,7.3,1.2
			c1-2.7,1.2-34.1-0.3-39.6c-0.9-3.1-5.2-6.1-7-7.2V107.7z"/>
	</g>
	<g>
		<path class="st3" d="M110.6,49.2c-3.2,0-5.9,2-7,4.9c-1-2.8-3.8-4.9-7-4.9c-4.1,0-7.4,3.3-7.4,7.4c0,10.3,14.4,19.7,14.4,19.7
			S118,66.9,118,56.7C118,52.6,114.7,49.2,110.6,49.2z"/>
		<path d="M103.6,77l-0.3-0.2c-0.6-0.4-14.7-9.7-14.7-20.2c0-2.2,0.8-4.2,2.4-5.7c1.5-1.5,3.5-2.4,5.7-2.4c0,0,0,0,0,0
			c2.9,0,5.5,1.6,7,4c1.4-2.5,4.1-4,7-4c0,0,0,0,0,0c4.4,0,8.1,3.6,8.1,8.1c0,10.5-14.1,19.8-14.7,20.2L103.6,77z M96.6,49.8
			c-3.8,0-6.8,3.1-6.8,6.8c0,9,11.6,17.4,13.8,18.9c2.2-1.5,13.8-9.9,13.8-18.9c0-3.8-3.1-6.8-6.8-6.8l0,0c0,0,0,0,0,0
			c-2.8,0-5.4,1.8-6.4,4.5l-0.6,1.6l-0.6-1.6C102,51.6,99.4,49.8,96.6,49.8C96.6,49.8,96.6,49.8,96.6,49.8z"/>
	</g>
	<g>
		<path class="st3" d="M120.1,81.9c-2.1,0-3.9,1.3-4.6,3.2c-0.7-1.9-2.5-3.2-4.6-3.2c-2.7,0-4.9,2.2-4.9,4.9
			c0,6.8,9.5,12.9,9.5,12.9s9.5-6.2,9.5-12.9C124.9,84.1,122.8,81.9,120.1,81.9z"/>
		<path d="M115.5,100.4l-0.3-0.2c-0.4-0.3-9.8-6.4-9.8-13.5c0-3,2.5-5.5,5.5-5.5c0,0,0,0,0,0c1.9,0,3.6,1,4.6,2.5
			c1-1.5,2.7-2.5,4.6-2.5c0,0,0,0,0,0l0,0c3,0,5.5,2.5,5.5,5.5c0,7-9.4,13.2-9.8,13.4L115.5,100.4z M110.9,82.5
			c-2.4,0-4.3,1.9-4.3,4.3c0,5.6,7.2,11,8.8,12.2c1.7-1.2,8.9-6.5,8.9-12.2c0-2.4-1.9-4.3-4.3-4.3c0,0,0,0,0,0c-1.8,0-3.4,1.1-4,2.8
			l-0.6,1.6l-0.6-1.6C114.3,83.6,112.7,82.5,110.9,82.5C110.9,82.5,110.9,82.5,110.9,82.5z"/>
	</g>
	<g>
		<path class="st3" d="M103.6,106.1c-1.8,0-3.3,1.1-3.8,2.7c-0.6-1.6-2.1-2.7-3.8-2.7c-2.3,0-4.1,1.8-4.1,4.1
			c0,5.7,7.9,10.8,7.9,10.8s7.9-5.2,7.9-10.8C107.7,107.9,105.9,106.1,103.6,106.1z"/>
		<path d="M99.8,121.7l-0.3-0.2c-0.3-0.2-8.2-5.4-8.2-11.3c0-2.6,2.1-4.7,4.7-4.7c0,0,0,0,0,0c1.5,0,3,0.8,3.8,2
			c0.9-1.2,2.3-2,3.8-2c0,0,0,0,0,0c2.6,0,4.7,2.1,4.7,4.7c0,5.9-7.9,11.1-8.2,11.3L99.8,121.7z M95.9,106.7c-1.9,0-3.5,1.6-3.5,3.5
			c0,4.6,5.8,9,7.3,10.1c1.5-1,7.3-5.5,7.3-10.1c0-1.9-1.6-3.5-3.5-3.5l0,0c0,0,0,0,0,0c-1.4,0-2.8,0.9-3.3,2.3l-0.6,1.6l-0.6-1.6
			C98.7,107.6,97.4,106.7,95.9,106.7C95.9,106.7,95.9,106.7,95.9,106.7z"/>
	</g>
</g>
</svg>
