<?xml version="1.0" encoding="utf-8"?>
<!-- Generator: Adobe Illustrator 21.0.1, SVG Export Plug-In . SVG Version: 6.00 Build 0)  -->
<svg version="1.1" id="Layer_1" xmlns="http://www.w3.org/2000/svg" xmlns:xlink="http://www.w3.org/1999/xlink" x="0px" y="0px"
	 viewBox="0 0 60 60" style="enable-background:new 0 0 60 60;" xml:space="preserve">
<style type="text/css">
	.st0{fill:url(#SVGID_1_);}
</style>
<linearGradient id="SVGID_1_" gradientUnits="userSpaceOnUse" x1="-45.676" y1="30.1567" x2="142.5773" y2="30.1567">
	<stop  offset="0" style="stop-color:#C47DD9"/>
	<stop  offset="1" style="stop-color:#FDBCD4"/>
</linearGradient>
<path class="st0" d="M31.3,24.1c0-0.6,0.4-0.8,0.9-0.8c0.6,0,1.3,0,1.9,0c0.2,0,0.4,0,0.6,0c0.2-1.3,0.3-2.6,0.5-3.9
	c-0.2,0-0.4-0.1-0.6-0.1c-0.9-0.1-1.9-0.1-2.8-0.1c-0.9,0-1.8,0-2.7,0.1c-1,0.1-1.7,0.6-2.2,1.4c-0.4,0.6-0.6,1.3-0.6,2
	c0,1.1,0,2.2,0,3.2c0,0.1,0,0.2-0.2,0.1c-0.7,0-1.4,0-2,0c0,0-0.1,0-0.1,0c0,1.3,0,2.6,0.1,4c0.8,0,1.5,0,2.3,0c0,3.7,0,7.4,0,11
	c1.7,0,3.4,0,5,0c0-3.7,0-7.4,0-11c1.2,0,2.3,0,3.5,0c0-1.4,0-2.7,0-4.1c-1.2,0-2.3,0-3.5,0C31.3,25.4,31.3,24.8,31.3,24.1z"/>
</svg>
