<?xml version="1.0" encoding="utf-8"?>
<!-- Generator: Adobe Illustrator 21.0.1, SVG Export Plug-In . SVG Version: 6.00 Build 0)  -->
<svg version="1.1" id="Layer_1" xmlns="http://www.w3.org/2000/svg" xmlns:xlink="http://www.w3.org/1999/xlink" x="0px" y="0px"
	 viewBox="0 0 60 60" style="enable-background:new 0 0 60 60;" xml:space="preserve">
<style type="text/css">
	.st0{fill:none;}
	.st1{fill:url(#SVGID_1_);}
	.st2{fill:url(#SVGID_2_);}
</style>
<path class="st0" d="M37.1,21.1c-1,0-1.6,0.8-1.6,1.6c0,0.8,0.8,1.6,1.6,1.6c0.9,0,1.6-0.7,1.6-1.6C38.7,21.8,38,21.2,37.1,21.1z"/>
<path class="st0" d="M30,23c-3.8,0-6.8,3-6.8,6.8c0,3.8,3,6.8,6.8,6.8c3.8,0,6.8-3,6.8-6.8C36.8,26.1,33.8,23,30,23z M30,34.2
	c-2.4,0-4.4-2-4.4-4.5c0-2.4,2-4.4,4.4-4.4c2.4,0,4.4,2,4.4,4.4C34.4,32.3,32.4,34.3,30,34.2z"/>
<g>
	<path class="st0" d="M37.1,21.1c-1,0-1.6,0.8-1.6,1.6c0,0.8,0.8,1.6,1.6,1.6c0.9,0,1.6-0.7,1.6-1.6C38.7,21.8,38,21.2,37.1,21.1z"
		/>
	<path class="st0" d="M30,23c-3.8,0-6.8,3-6.8,6.8c0,3.8,3,6.8,6.8,6.8c3.8,0,6.8-3,6.8-6.8C36.8,26.1,33.8,23,30,23z"/>
	<linearGradient id="SVGID_1_" gradientUnits="userSpaceOnUse" x1="19.074" y1="29.8221" x2="207.3273" y2="29.8221">
		<stop  offset="0" style="stop-color:#C47DD9"/>
		<stop  offset="1" style="stop-color:#FDBCD4"/>
	</linearGradient>
	<path class="st1" d="M40.8,24c-0.1-0.8-0.3-1.7-0.7-2.5c-0.8-1.7-2.4-2.4-4.2-2.5c-3.9-0.2-7.9-0.2-11.8,0c-0.9,0-1.7,0.2-2.5,0.7
		c-1.7,0.9-2.3,2.5-2.4,4.3c-0.1,1.4-0.1,2.8-0.1,4.2c0,2.5,0.1,4.9,0.1,7.4c0,0.9,0.2,1.7,0.6,2.5c0.9,1.8,2.5,2.4,4.4,2.5
		c1.9,0.1,3.9,0.1,5.8,0.2c1.9-0.1,3.9-0.1,5.8-0.2c0.9,0,1.7-0.2,2.5-0.6c1.7-0.9,2.4-2.5,2.5-4.3C41,31.8,41,27.9,40.8,24z
		 M30,36.6c-3.8,0-6.8-3-6.8-6.8c0-3.8,3-6.8,6.8-6.8c3.8,0,6.9,3.1,6.8,6.9C36.8,33.6,33.7,36.6,30,36.6z M37.1,24.3
		c-0.8,0-1.6-0.7-1.6-1.6c0-0.8,0.7-1.7,1.6-1.6c0.9,0,1.6,0.7,1.5,1.6C38.7,23.6,38,24.3,37.1,24.3z"/>
</g>
<linearGradient id="SVGID_2_" gradientUnits="userSpaceOnUse" x1="19.074" y1="29.814" x2="207.3273" y2="29.814">
	<stop  offset="0" style="stop-color:#C47DD9"/>
	<stop  offset="1" style="stop-color:#FDBCD4"/>
</linearGradient>
<path class="st2" d="M30,25.4c-2.4,0-4.4,2-4.4,4.4c0,2.4,2,4.4,4.4,4.5c2.4,0,4.4-2,4.5-4.4C34.4,27.4,32.4,25.4,30,25.4z"/>
</svg>
