<?xml version="1.0" encoding="utf-8"?>
<!-- Generator: Adobe Illustrator 21.0.1, SVG Export Plug-In . SVG Version: 6.00 Build 0)  -->
<svg version="1.1" id="Layer_1" xmlns="http://www.w3.org/2000/svg" xmlns:xlink="http://www.w3.org/1999/xlink" x="0px" y="0px"
	 viewBox="0 0 60 60" style="enable-background:new 0 0 60 60;" xml:space="preserve">
<style type="text/css">
	.st0{fill:none;}
	.st1{fill:url(#SVGID_1_);}
</style>
<g>
	<path class="st0" d="M25.8,34.4c3.2-1.6,6.3-3.2,9.6-4.9c-3.2-1.7-6.4-3.3-9.6-4.9C25.8,27.9,25.8,31.1,25.8,34.4z"/>
	<linearGradient id="SVGID_1_" gradientUnits="userSpaceOnUse" x1="-113.176" y1="29.7727" x2="75.0773" y2="29.7727">
		<stop  offset="0" style="stop-color:#C47DD9"/>
		<stop  offset="1" style="stop-color:#FDBCD4"/>
	</linearGradient>
	<path class="st1" d="M44.6,25.7c-0.1-1-0.2-2-0.4-3c-0.4-1.6-1.7-2.7-3.4-2.9c-2.3-0.2-4.5-0.3-6.8-0.3c-2.7,0-5.4-0.1-8.1,0
		c-2,0-4,0.2-6,0.3c-0.6,0-1.2,0.1-1.7,0.2c-1.4,0.3-2.3,1.1-2.8,2.4c-0.4,1-0.5,2-0.5,3c0,0.6-0.1,1.2-0.1,1.8c0,0.1,0,0.2,0,0.2
		c0,1.6,0,3.2,0,4.8c0,0.5,0,0.9,0.1,1.4c0.1,1,0.2,2.1,0.4,3.1c0.3,1.7,1.7,2.9,3.5,3.1c2.3,0.2,4.5,0.3,6.8,0.3
		c2.7,0,5.4,0.1,8.1,0c2.1,0,4.2-0.2,6.2-0.3c0.5,0,1-0.1,1.5-0.2c1.4-0.3,2.3-1.1,2.8-2.4c0.4-1,0.4-2,0.5-3
		c0.1-0.6,0.1-1.2,0.1-1.8c0-0.1,0-0.2,0-0.3c0-1.6,0-3.2,0-4.9C44.6,26.8,44.6,26.2,44.6,25.7z M25.8,34.4c0-3.3,0-6.5,0-9.8
		c3.2,1.6,6.3,3.3,9.6,4.9C32.1,31.1,28.9,32.7,25.8,34.4z"/>
</g>
</svg>
